<mxfile host="app.diagrams.net" modified="2024-06-30T08:58:37.753Z" agent="Mozilla/5.0 (Windows NT 10.0; Win64; x64) AppleWebKit/537.36 (KHTML, like Gecko) Chrome/126.0.0.0 Safari/537.36" version="24.6.4" etag="d2fhXKj3DCm8p2fHdZbj" type="github">
  <diagram name="Page-1" id="RbQaC8xCSV2GIHwFdYkw">
    <mxGraphModel>
      <root>
        <mxCell id="0" />
        <mxCell id="1" parent="0" />
      </root>
    </mxGraphModel>
  </diagram>
</mxfile>
